<svg width="231" height="69" viewBox="0 0 231 69" fill="none" xmlns="http://www.w3.org/2000/svg">
<line x1="1.98858" y1="46.4849" x2="17.9886" y2="67.4849" stroke="#FFB703" stroke-width="5"/>
<line x1="214.013" y1="1.517" x2="228.013" y2="20.517" stroke="#FFB703" stroke-width="5"/>
<line x1="2.02403" y1="27.5326" x2="31.024" y2="67.5326" stroke="#FFB703" stroke-width="5"/>
<line x1="201.019" y1="1.52633" x2="228.019" y2="38.5263" stroke="#FFB703" stroke-width="5"/>
<line x1="3.00889" y1="11.5119" x2="43.0089" y2="65.5119" stroke="#FFB703" stroke-width="5"/>
<line x1="11.0077" y1="3.51038" x2="57.0077" y2="65.5104" stroke="#FFB703" stroke-width="5"/>
<line x1="49.0077" y1="3.51038" x2="95.0077" y2="65.5104" stroke="#FFB703" stroke-width="5"/>
<line x1="113.008" y1="3.51038" x2="159.008" y2="65.5104" stroke="#FFB703" stroke-width="5"/>
<line x1="164.008" y1="3.51038" x2="210.008" y2="65.5104" stroke="#FFB703" stroke-width="5"/>
<line x1="23.0077" y1="3.51038" x2="69.0077" y2="65.5104" stroke="#FFB703" stroke-width="5"/>
<line x1="87.0077" y1="3.51038" x2="133.008" y2="65.5104" stroke="#FFB703" stroke-width="5"/>
<line x1="61.0077" y1="3.51038" x2="107.008" y2="65.5104" stroke="#FFB703" stroke-width="5"/>
<line x1="125.008" y1="3.51038" x2="171.008" y2="65.5104" stroke="#FFB703" stroke-width="5"/>
<line x1="176.008" y1="3.51038" x2="222.008" y2="65.5104" stroke="#FFB703" stroke-width="5"/>
<line x1="36.0077" y1="3.51038" x2="82.0077" y2="65.5104" stroke="#FFB703" stroke-width="5"/>
<line x1="100.008" y1="3.51038" x2="146.008" y2="65.5104" stroke="#FFB703" stroke-width="5"/>
<line x1="151.008" y1="3.51038" x2="197.008" y2="65.5104" stroke="#FFB703" stroke-width="5"/>
<line x1="74.0077" y1="3.51038" x2="120.008" y2="65.5104" stroke="#FFB703" stroke-width="5"/>
<line x1="138.008" y1="3.51038" x2="184.008" y2="65.5104" stroke="#FFB703" stroke-width="5"/>
<line x1="189" y1="3.5" x2="228" y2="55.5" stroke="#FFB703" stroke-width="5"/>
</svg>
