<svg width="61" height="95" viewBox="0 0 61 95" fill="none" xmlns="http://www.w3.org/2000/svg">
<path d="M4.49173 25.707C3.05828 30.0073 6.09977 32.3689 7.79969 33.0121C12.3206 31.4684 15.748 35.9525 16.8966 38.3875L22.5477 66.9187L20.3424 42.5225C19.3776 38.7551 19.2397 31.2203 26.407 31.2203C33.5742 31.2203 35.2741 36.366 35.2282 38.9389L36.0552 75.4643L37.7092 48.5871L38.1227 37.8362C38.1227 35.9984 39.501 32.1024 45.0143 31.2203C50.5275 30.3382 54.6625 35.2633 56.0408 37.8362L56.8678 33.2877C58.3839 31.3581 59.6244 26.2583 58.6596 23.5017C57.8877 21.2964 54.9381 20.1018 53.5598 19.7802C49.2595 26.5064 45.5196 25.6151 44.1873 24.3287C47.0817 22.9504 51.2167 21.4342 50.6654 16.3344C50.2243 12.2546 45.3359 11.786 42.9468 12.0617C41.5133 20.5521 37.2038 19.3667 35.2282 17.7128C38.3983 17.7128 39.501 14.5426 39.7766 13.0265C40.0523 11.5103 39.9145 5.7214 32.0581 4.89441C25.7729 4.23281 22.8233 7.28349 22.1342 8.89153C29.6322 12.9713 27.4637 17.5749 25.4422 19.3667C25.4422 18.4479 25.3319 16.3069 24.8908 15.094C24.3395 13.5778 19.2397 9.71852 14.2778 11.786C10.3082 13.44 9.77528 17.0695 10.005 18.6776C17.6133 18.2365 17.402 22.5369 16.3453 24.7422C15.1323 22.6471 13.1751 21.6639 12.3481 21.4342C10.3266 21.0667 5.92518 21.4066 4.49173 25.707Z" fill="#FFB703"/>
<path d="M6.83487 40.8685L17.1723 92.5554C26.7745 92.6932 46.1996 92.8862 47.0817 92.5554C47.9639 92.2246 48.5519 90.2122 48.7357 89.2474L55.3516 38.2497C55.7192 35.4011 54.9933 29.8144 49.1492 30.2554C43.3051 30.6965 42.0279 36.9632 42.1198 40.0415L40.4658 81.5288C40.0523 82.9531 38.8945 85.7189 37.5713 85.3881C36.2482 85.0573 36.0093 82.6774 36.0552 81.5288V37.2848C35.5498 34.8498 33.3537 30.0349 28.6123 30.2554C23.8709 30.476 23.145 35.6768 23.3747 38.2497L27.7853 82.9071C27.9231 83.826 27.8404 85.6913 26.407 85.8016C24.9735 85.9119 24.3395 84.1936 24.2017 83.3206C22.4099 69.1699 18.6884 40.3447 18.1371 38.2497C17.4479 35.6309 14.6913 31.3581 10.1428 32.0472C6.50408 32.5986 6.42138 38.1578 6.83487 40.8685Z" fill="#FB8500"/>
<path d="M49.1492 93.2446C36.193 93.2446 16.7588 93.3824 15.6561 93.2446C14.5534 93.1068 13.313 92.5554 12.8995 90.488L3.84706 43.2117C3.84706 43.2117 1.90188 33.7013 7.24834 32.5986C11.703 31.6799 13.5886 39.4903 13.5886 39.4903L20.3424 83.0451C20.3424 83.0451 20.5543 85.9042 22.8233 85.526C25.0924 85.1479 24.3395 81.3911 24.3395 81.3911L20.0667 40.0416C20.0667 40.0416 18.8262 31.0825 25.7178 31.0825C32.6094 31.0825 31.8114 44.3144 31.8114 44.3144L32.7472 82.0802C32.7472 82.0802 32.3337 85.2504 34.6768 85.2504C37.02 85.2504 36.9111 82.4937 36.9111 82.4937L38.2605 40.8685C38.2605 40.8685 37.5714 30.3474 44.7386 31.0825C51.9059 31.8176 49.7005 41.4199 49.7005 41.4199L45.2899 82.4937C45.2899 82.4937 44.4629 85.8017 47.0817 85.8017C49.0113 85.8017 49.1492 83.3207 49.1492 83.3207L56.7299 33.5635C56.7299 33.5635 60.2753 28.9985 58.3839 23.6396C56.7299 18.9533 50.8032 18.402 47.633 19.229C44.4629 20.056 43.1155 23.1368 44.0494 24.6044C45.0143 26.1206 48.3222 25.2936 49.7005 24.3287C52.3074 22.5039 56.7658 16.0034 50.114 10.5456C44.7386 6.13495 38.2129 9.40974 36.193 11.7861C33.8499 14.5427 34.1255 17.768 35.7795 18.6776C38.1227 19.9664 41.0171 18.9533 42.3955 15.094C44.4629 7.92677 38.1413 1.99999 29.9906 2C23.099 2.00001 15.9318 9.44291 20.0667 16.6102C21.1795 18.5389 24.2017 20.0984 26.407 18.402C27.6475 17.4478 28.0609 14.9562 25.7178 11.7861C23.3747 8.61592 14.424 6.5401 9.86717 11.0969C4.76739 16.1967 8.08249 22.0681 10.9698 24.0531C13.1751 25.5692 16.4831 25.7071 17.1722 23.3639C17.8614 21.0208 14.8685 18.9828 13.0373 18.6776C8.07535 17.8507 4.21608 20.3316 2.69992 23.3639C1.66617 25.4314 1.87293 28.3259 2.69992 30.669" stroke="black" stroke-width="3" stroke-linejoin="round"/>
</svg>